# xmcd
#
# Track frame offsets: 
#        150
#        15727
#        32070
#        44857
#        59892
#        77596
#        91791
#        107580
#        122328
#        136919
#        151513
#        166351
#        182818
#        197513
#        211712
#        224640
#        240465
#        255052
#        272489
#        286719
#
# Disc length: 4016 seconds
#
# Revision: 0
# Processed by: cddbd v1.5.2PL0 Copyright (c) Steve Scherf et al.
# Submitted via: ExactAudioCopy v1.1
#
DISCID=060fae14
DTITLE=Various Artist - MNM Big Hits 2019 Vol. 1 - CD 2
DYEAR=2019
DGENRE=Top 40
TTITLE0=Ariana Grande - Thank U, Next
TTITLE1=André Hazes Jr. - Leef
TTITLE2=Regi and Milo Meskens - Ordinary
TTITLE3=Angèle Feat. Roméo Elvis - Tout Oublier
TTITLE4=Dom Dolla - Take It
TTITLE5=Rita Ora - Let You Love Me
TTITLE6=Nielson - Ijskoud
TTITLE7=5 Seconds Of Summer - Valentine
TTITLE8=CamelPhat X Cristoph Feat. Jem Cooke - Breathe
TTITLE9=Billie Eilish - When The Party's Over
TTITLE10=Anne-Marie - Perfect To Me
TTITLE11=Ine - The Odds
TTITLE12=Seeb X Bastille - Grip
TTITLE13=Jonas Blue, Liam Payne and Lennon Stella - Polaroid
TTITLE14=Laura Tesoro - Mutual
TTITLE15=The Starlings - Mine
TTITLE16=Martin Garrix Feat. Mike Yung - Dreamer
TTITLE17=Milo Meskens - Let You Go
TTITLE18=OT - Where Is My Love
TTITLE19=Dean Lewis - Be Alright
EXTD=
EXTT0=
EXTT1=
EXTT2=
EXTT3=
EXTT4=
EXTT5=
EXTT6=
EXTT7=
EXTT8=
EXTT9=
EXTT10=
EXTT11=
EXTT12=
EXTT13=
EXTT14=
EXTT15=
EXTT16=
EXTT17=
EXTT18=
EXTT19=
PLAYORDER=
